<svg xmlns="http://www.w3.org/2000/svg" width="1280" height="800" viewBox="0 0 1280 800" fill="none">
  <rect width="1280" height="800" fill="#07111f"/>
  <circle cx="1020" cy="132" r="220" fill="#16a34a" opacity="0.18"/>
  <circle cx="226" cy="690" r="260" fill="#2563eb" opacity="0.22"/>
  <rect x="92" y="86" width="1096" height="628" rx="42" fill="#0f172a" stroke="#334155" stroke-width="3"/>
  <text x="132" y="164" fill="#e2e8f0" font-family="Inter,Segoe UI,Arial" font-size="34" font-weight="700">Al Qibla Air Services</text>
  <text x="132" y="212" fill="#94a3b8" font-family="Inter,Segoe UI,Arial" font-size="22">Travel agency platform, packages, bookings, admin content</text>
  <rect x="132" y="276" width="420" height="280" rx="28" fill="#111827" stroke="#1d4ed8" stroke-width="2"/>
  <path d="M238 438c70-112 142-112 212 0" stroke="#22c55e" stroke-width="16" stroke-linecap="round"/>
  <path d="M344 344v184" stroke="#60a5fa" stroke-width="16" stroke-linecap="round"/>
  <circle cx="344" cy="344" r="42" fill="#f8fafc"/>
  <path d="M780 284l224 84-224 84-224-84 224-84Z" fill="#1d4ed8"/>
  <path d="M780 452l224-84v154l-224 84-224-84V368l224 84Z" fill="#0f766e"/>
  <rect x="690" y="606" width="312" height="34" rx="17" fill="#334155"/>
  <rect x="690" y="606" width="214" height="34" rx="17" fill="#22c55e"/>
</svg>
